<svg version="1.1" height="40" viewBox="0.0 0.0 1248.0 176.0" fill="none" stroke="none" stroke-linecap="square" stroke-miterlimit="10" xmlns:xlink="http://www.w3.org/1999/xlink" xmlns="http://www.w3.org/2000/svg"><clipPath id="p.0"><path d="m0 0l1248.0 0l0 176.0l-1248.0 0l0 -176.0z" clip-rule="nonzero"/></clipPath><g clip-path="url(#p.0)"><path fill="#000000" fill-opacity="0.0" d="m0 0l1248.0 0l0 176.0l-1248.0 0z" fill-rule="evenodd"/><path fill="#000000" fill-opacity="0.0" d="m30.23622 -0.77165353l1092.6929 0l0 177.5433l-1092.6929 0z" fill-rule="evenodd"/><path fill="#ffffff" d="m95.42372 130.2454l-30.96875 -59.515625l0 65.921875l-17.15625 0l0 -89.59375l23.8125 0l24.578125 48.125l24.578125 -48.125l23.796875 0l0 89.59375l-17.53125 0l0 -65.796875l-31.109375 59.390625zm59.005386 -66.8125l0 -16.375l78.859375 0l0 16.375l-30.078125 0l0 73.21875l-18.5625 0l0 -73.21875l-30.21875 0zm63.107513 73.21875l36.875 -89.59375l21.5 0l36.34375 89.59375l-20.09375 0l-9.078125 -23.546875l-37.0 0l-9.21875 23.546875l-19.328125 0zm34.3125 -38.40625l25.59375 0l-12.671875 -33.015625l-12.921875 33.015625zm93.689606 38.40625l0 -89.59375l44.921875 0q6.53125 0 12.09375 2.109375q5.578125 2.109375 9.546875 5.828125q3.96875 3.703125 6.203125 8.890625q2.25 5.1875 2.25 11.328125q0 6.015625 -2.25 11.078125q-2.234375 5.046875 -6.265625 8.765625q-4.03125 3.703125 -9.546875 5.75q-5.5 2.046875 -12.03125 2.046875l-26.359375 0l0 33.796875l-18.5625 0zm42.875 -73.59375l-24.3125 0l0 24.4375l24.3125 0q6.015625 0 9.65625 -3.328125q3.65625 -3.328125 3.65625 -8.828125q0 -5.5 -3.65625 -8.890625q-3.640625 -3.390625 -9.65625 -3.390625zm61.44577 74.75q-10.75 0 -17.53125 -5.6875q-6.78125 -5.703125 -6.78125 -14.796875q0 -9.46875 7.28125 -14.84375q7.296875 -5.375 20.109375 -5.375q4.09375 0 8.1875 0.640625q4.09375 0.640625 8.0625 1.921875l0 -4.75q0 -5.75 -3.59375 -8.6875q-3.578125 -2.953125 -10.484375 -2.953125q-4.21875 0 -9.15625 1.34375q-4.921875 1.34375 -11.203125 4.15625l-6.390625 -12.921875q7.8125 -3.59375 15.171875 -5.375q7.359375 -1.796875 14.515625 -1.796875q13.4375 0 20.921875 6.46875q7.5 6.453125 7.5 18.234375l0 43.265625l-17.28125 0l0 -4.609375q-4.21875 2.953125 -8.890625 4.359375q-4.671875 1.40625 -10.4375 1.40625zm-7.546875 -20.875q0 3.84375 3.328125 6.09375q3.328125 2.234375 8.828125 2.234375q4.34375 0 7.984375 -1.078125q3.65625 -1.09375 6.734375 -3.140625l0 -9.984375q-3.203125 -1.28125 -6.71875 -1.859375q-3.515625 -0.578125 -7.359375 -0.578125q-6.015625 0 -9.40625 2.25q-3.390625 2.234375 -3.390625 6.0625zm63.995636 0.90625l0 -33.15625l-13.703125 0l0 -14.71875l13.703125 0l0 -17.03125l17.53128 -3.96875l0 21.0l18.953064 0l0 14.71875l-18.953064 0l0 29.5625q0 4.75 2.046875 6.671875q2.046875 1.90625 7.171875 1.90625q2.4375 0 4.609375 -0.3125q2.171875 -0.328125 4.734314 -1.21875l0 14.328125q-2.812439 0.90625 -6.781189 1.484375q-3.96875 0.578125 -6.78125 0.578125q-11.140625 0 -16.84378 -5.0625q-5.6875 -5.0625 -5.6875 -14.78125zm45.178253 18.8125l0 -89.59375l17.546875 -3.84375l0 32.0q3.828125 -3.203125 8.5 -4.859375q4.671875 -1.671875 10.1875 -1.671875q11.515625 0 18.9375 7.421875q7.421875 7.421875 7.421875 19.078125l0 41.46875l-17.53125 0l0 -38.90625q0 -6.28125 -3.78125 -10.109375q-3.765625 -3.84375 -10.046875 -3.84375q-4.34375 0 -7.875 1.734375q-3.515625 1.71875 -5.8125 4.921875l0 46.203125l-17.546875 0zm68.73462 -66.6875l14.859375 0l0 -6.40625q0 -11.125 6.515625 -17.140625q6.53125 -6.015625 18.828125 -6.015625q2.6875 0 5.5 0.328125q2.8125 0.3125 4.859375 0.8125l0 14.71875q-2.421875 -0.5 -4.28125 -0.75q-1.859375 -0.265625 -3.90625 -0.265625q-4.984375 0 -7.484375 2.171875q-2.5 2.171875 -2.5 6.53125l0 6.015625l18.171875 0l0 14.71875l-18.171875 0l0 51.96875l-17.53125 0l0 -51.96875l-14.859375 0l0 -14.71875zm68.48053 -7.9375q-4.09375 0 -7.046875 -2.9375q-2.9375 -2.953125 -2.9375 -7.046875q0 -4.09375 2.9375 -7.03125q2.953125 -2.953125 7.046875 -2.953125q4.109375 0 7.046875 2.953125q2.9375 2.9375 2.9375 7.03125q0 4.09375 -2.9375 7.046875q-2.9375 2.9375 -7.046875 2.9375zm8.84375 7.9375l0 66.6875l-17.546875 0l0 -66.6875l17.546875 0zm13.68512 66.6875l0 -66.6875l17.546875 0l0 5.25q3.828125 -3.203125 8.5 -4.859375q4.671875 -1.671875 10.1875 -1.671875q11.515625 0 18.9375 7.421875q7.421875 7.421875 7.421875 19.078125l0 41.46875l-17.53125 0l0 -38.90625q0 -6.28125 -3.78125 -10.109375q-3.765625 -3.84375 -10.046875 -3.84375q-4.34375 0 -7.875 1.734375q-3.515625 1.71875 -5.8125 4.921875l0 46.203125l-17.546875 0zm125.70087 0l0 -5.5q-3.96875 3.203125 -8.828125 4.796875q-4.859375 1.59375 -10.109375 1.59375q-7.046875 0 -13.265625 -2.6875q-6.203125 -2.6875 -10.8125 -7.296875q-4.59375 -4.609375 -7.21875 -10.875q-2.625 -6.265625 -2.625 -13.4375q0 -7.171875 2.6875 -13.4375q2.6875 -6.28125 7.296875 -10.890625q4.609375 -4.609375 10.9375 -7.21875q6.34375 -2.625 13.5 -2.625q4.875 0 9.546875 1.34375q4.671875 1.34375 8.640625 3.890625l0 -27.25l17.53125 -3.84375l0 93.4375l-17.28125 0zm-35.578125 -33.40625q0 8.0625 5.625 13.703125q5.640625 5.625 13.828125 5.625q4.859375 0 8.890625 -1.65625q4.03125 -1.671875 6.984375 -4.75l0 -25.984375q-2.828125 -2.9375 -6.984375 -4.59375q-4.15625 -1.671875 -8.890625 -1.671875q-8.328125 0 -13.890625 5.578125q-5.5625 5.5625 -5.5625 13.75zm126.458496 25.09375q-6.140625 4.984375 -12.609375 7.296875q-6.46875 2.296875 -14.390625 2.296875q-7.5625 0 -14.15625 -2.6875q-6.59375 -2.6875 -11.390625 -7.296875q-4.796875 -4.609375 -7.546875 -10.9375q-2.75 -6.34375 -2.75 -13.640625q0 -7.171875 2.625 -13.5q2.625 -6.34375 7.21875 -11.015625q4.609375 -4.671875 10.9375 -7.359375q6.34375 -2.6875 13.515625 -2.6875q7.046875 0 13.125 2.75q6.078125 2.75 10.484375 7.5q4.421875 4.734375 6.921875 11.328125q2.5 6.578125 2.5 14.265625l0 4.609375l-49.671875 0q1.796875 6.265625 6.90625 10.109375q5.125 3.84375 12.046875 3.84375q4.34375 0 8.1875 -1.40625q3.84375 -1.40625 6.53125 -3.96875l11.515625 10.5zm-28.921875 -45.0625q-6.015625 0 -10.375 3.65625q-4.34375 3.640625 -6.015625 9.78125l32.640625 0q-1.65625 -5.890625 -6.078125 -9.65625q-4.421875 -3.78125 -10.171875 -3.78125zm44.14862 53.375l0 -66.6875l17.546875 0l0 7.296875q3.1875 -4.359375 7.734375 -6.59375q4.546875 -2.234375 10.046875 -2.234375q2.5625 0.125 4.28125 0.453125q1.734375 0.3125 3.015625 1.078125l0 15.359375q-1.921875 -0.890625 -4.21875 -1.34375q-2.296875 -0.453125 -4.734375 -0.453125q-5.125 0 -9.421875 2.5625q-4.28125 2.5625 -6.703125 7.421875l0 43.140625l-17.546875 0z" fill-rule="nonzero"/></g></svg>